<svg width="256" height="256" viewBox="0 0 256 256" xmlns="http://www.w3.org/2000/svg">
    <defs>
        <linearGradient id="folderGradient" x1="0%" y1="0%" x2="100%" y2="100%">
            <stop offset="0%" style="stop-color:#027DFD; stop-opacity:1" />
            <stop offset="100%" style="stop-color:#01579B; stop-opacity:1" />
        </linearGradient>
        <linearGradient id="wandGradient" x1="0%" y1="0%" x2="100%" y2="100%">
            <stop offset="0%" style="stop-color:#69F0AE; stop-opacity:1" />
            <stop offset="100%" style="stop-color:#00E676; stop-opacity:1" />
        </linearGradient>
    </defs>
    <g transform="translate(0, 10)">
        <path d="M42 64 H214 C225.046 64 234 72.954 234 84 V 188 C234 199.046 225.046 208 214 208 H42 C30.954 208 22 199.046 22 188 V 84 C22 72.954 30.954 64 42 64 Z" fill="url(#folderGradient)" />
        <path d="M22 96 H234 V188 C234 199.046 225.046 208 214 208 H42 C30.954 208 22 199.046 22 188 V96 Z" fill="#4FC3F7" opacity="0.6" />
        <path d="M32 48 H120 C125.523 48 130 52.477 130 58 V64 H32 C32 64 32 53.523 32 48 Z" fill="url(#folderGradient)" />
        <text x="128" y="175" font-family="sans-serif" font-size="36" font-weight="bold" fill="#FFFFFF" text-anchor="middle" letter-spacing="2">flutter</text>
        <g transform="translate(140, 30) rotate(15)">
            <rect x="0" y="20" width="80" height="20" rx="10" fill="url(#wandGradient)" transform="rotate(-45 40 30)" />
            <path d="M80 0 L85 15 L100 20 L85 25 L80 40 L75 25 L60 20 L75 15 Z" fill="#FFEB3B"/>
            <path d="M20 70 L23 80 L33 83 L23 86 L20 96 L17 86 L7 83 L17 80 Z" fill="#FFFFFF" opacity="0.9"/>
            <path d="M90 60 L92 68 L100 70 L92 72 L90 80 L88 72 L80 70 L88 68 Z" fill="#FFFFFF" opacity="0.7"/>
        </g>
    </g>
</svg>